<svg width="34" height="28" viewBox="0 0 34 28" fill="none" xmlns="http://www.w3.org/2000/svg">
<path d="M30.3333 23.9998H27V9.4165L17 15.6665L7.00001 9.4165V23.9998H3.66668V3.99984H5.66668L17 11.0832L28.3333 3.99984H30.3333V23.9998ZM30.3333 0.666504H3.66668C1.81668 0.666504 0.333344 2.14984 0.333344 3.99984V23.9998C0.333344 24.8839 0.684533 25.7317 1.30965 26.3569C1.93478 26.982 2.78262 27.3332 3.66668 27.3332H30.3333C31.2174 27.3332 32.0652 26.982 32.6904 26.3569C33.3155 25.7317 33.6667 24.8839 33.6667 23.9998V3.99984C33.6667 3.11578 33.3155 2.26794 32.6904 1.64281C32.0652 1.01769 31.2174 0.666504 30.3333 0.666504Z" fill="#fff"/>
</svg>
