<svg width="137" height="80" viewBox="0 0 137 80" fill="none" xmlns="http://www.w3.org/2000/svg">
<path d="M127.432 9.01789C122.157 3.74453 115.137 0.580858 107.692 0.122282C100.248 -0.336294 92.8921 1.94184 87.0101 6.52796C81.639 2.35493 75.0308 0.0890221 68.2289 0.0877041C61.427 0.0863861 54.8184 2.34973 49.4454 6.52068C43.3177 1.71244 35.5859 -0.575668 27.8283 0.123483C20.0708 0.822631 12.8726 4.45632 7.70338 10.2827C2.53411 16.1091 -0.216416 23.6888 0.0133137 31.4743C0.243044 39.2599 3.43571 46.6644 8.93952 52.1757L27.7357 70.9746C27.7503 70.9887 27.7648 71.0024 27.7812 71.0169C27.7976 71.0315 27.8022 71.0383 27.8126 71.0488C27.8322 71.0683 27.8531 71.0861 27.8727 71.1057C28.1714 71.4014 28.4747 71.6894 28.7826 71.9701C28.9409 72.1152 29.101 72.2558 29.2621 72.3973C29.3928 72.511 29.5241 72.6238 29.6561 72.7353C35.0141 77.2752 41.7714 79.8334 48.7926 79.979C55.8143 80.125 62.6717 77.8503 68.2139 73.5364C74.0959 78.1223 81.4515 80.4007 88.8959 79.9421C96.3406 79.4835 103.361 76.3198 108.636 71.0465L127.432 52.2503C133.157 46.5129 136.372 38.7389 136.372 30.634C136.372 22.5291 133.156 14.7553 127.432 9.01789ZM68.223 8.04976C72.6919 8.0469 77.0613 9.36993 80.7777 11.8514C84.4947 14.3328 87.3913 17.861 89.1019 21.9896C90.8125 26.1182 91.2598 30.6614 90.3872 35.0443C89.5146 39.4272 87.3613 43.4526 84.1999 46.6112L68.223 62.5877L52.2456 46.6112C49.0842 43.4526 46.9309 39.4271 46.0583 35.0442C45.1857 30.6613 45.633 26.118 47.3436 21.9894C49.0542 17.8608 51.9513 14.3326 55.6678 11.8512C59.3847 9.3698 63.754 8.04681 68.223 8.04976ZM26.8308 49.431C26.8227 46.4624 27.4035 43.522 28.5395 40.7796C29.6755 38.0372 31.3442 35.5473 33.449 33.4541L37.7014 29.2017C37.4955 33.4522 38.1814 37.6988 39.7151 41.6683C41.2488 45.6376 43.5963 49.2422 46.6065 52.2503L62.2568 67.9005C58.8811 70.2649 54.9212 71.6575 50.8085 71.9259C46.6962 72.1943 42.5886 71.329 38.9341 69.4237C35.2796 67.5179 32.2183 64.6463 30.0839 61.1204C27.9496 57.595 26.824 53.551 26.8299 49.4296L26.8308 49.431ZM14.5777 46.5361C10.5785 42.5379 8.22416 37.1851 7.97981 31.5354C7.73546 25.8856 9.61881 20.3495 13.2579 16.0209C16.8969 11.6923 22.027 8.88578 27.6348 8.15581C33.2426 7.42585 38.9202 8.82554 43.5461 12.0783L27.8099 27.8146C24.9623 30.6467 22.7048 34.0155 21.1679 37.7259C19.6311 41.4364 18.8454 45.4148 18.8565 49.431C18.8565 49.905 18.8675 50.3773 18.8897 50.8482L14.5777 46.5361ZM87.0205 72.0251C82.4042 72.036 77.897 70.622 74.1141 67.9761L89.8412 52.2503C92.8516 49.2422 95.1987 45.6376 96.7323 41.6682C98.266 37.6987 98.952 33.4522 98.7464 29.2017L102.999 33.4541C106.159 36.6141 108.31 40.6402 109.182 45.0232C110.054 49.406 109.606 53.9491 107.896 58.0777C106.186 62.2064 103.29 65.735 99.5739 68.2176C95.8579 70.7003 91.4895 72.0251 87.0205 72.0251ZM121.794 46.6112L117.557 50.8482C117.578 50.3777 117.589 49.9055 117.59 49.431C117.601 45.4148 116.815 41.4364 115.278 37.7259C113.742 34.0154 111.484 30.6467 108.636 27.8146L92.9108 12.0888C97.5449 8.86403 103.219 7.49109 108.814 8.24025C114.41 8.98937 119.523 11.8064 123.146 16.1365C126.769 20.4667 128.639 25.9962 128.389 31.6365C128.138 37.2767 125.786 42.6189 121.794 46.6112Z" fill="#292C44"/>
</svg>
