<svg width="55" height="80" viewBox="0 0 55 80" fill="none" xmlns="http://www.w3.org/2000/svg">
<path d="M26.8575 24.6952C29.7523 24.6706 32.626 25.1887 35.3299 26.2227C33.3414 16.2403 30.2744 10.1348 26.8409 10.1394H26.8372C23.4046 10.146 20.355 16.2577 18.3918 26.2426C21.0921 25.2027 23.9635 24.6778 26.8571 24.6952H26.8575Z" fill="url(#paint0_linear_21_69)"/>
<path d="M27.059 71.878L22.6902 71.8838C23.7924 78.7228 25.3506 80.0022 27.0731 79.9997C28.7957 79.9972 30.3431 78.7133 31.4303 71.8726L27.059 71.878Z" fill="url(#paint1_linear_21_69)"/>
<path d="M37.6811 52.4285C37.5023 47.319 37.1487 41.9493 36.569 36.3481C36.2719 33.4774 35.9323 30.6832 35.5503 27.9657C29.9591 25.8059 23.7626 25.8131 18.1764 27.9861C17.8038 30.7296 17.4718 33.5499 17.1805 36.4473C16.6161 42.0909 16.2759 47.5029 16.1082 52.6551C11.2821 56.2238 7.94994 62.9928 7.96115 71.8727L15.9812 71.8623C17.4486 71.8623 18.3221 71.4888 18.3221 69.992L18.3171 69.9638L26.916 69.953L35.7964 69.9418C35.7964 71.5266 36.6354 71.8366 38.109 71.8345L46.1593 71.8245C46.1469 62.7749 42.6661 55.8898 37.6811 52.4285ZM26.8646 30.5767C27.5241 30.5758 28.1692 30.7705 28.718 31.1362C29.267 31.5019 29.6951 32.0222 29.9483 32.6312C30.2015 33.2402 30.2684 33.9106 30.1406 34.5577C30.0128 35.2047 29.696 35.7993 29.2302 36.2663C28.7644 36.7333 28.1707 37.0517 27.5239 37.1812C26.8772 37.3107 26.2066 37.2455 25.5969 36.9938C24.9873 36.7423 24.466 36.3155 24.0988 35.7675C23.7317 35.2196 23.5353 34.5751 23.5345 33.9156C23.5335 33.0312 23.8837 32.1828 24.5082 31.5566C25.1327 30.9305 25.9803 30.578 26.8646 30.5767ZM26.8787 41.4402C27.5382 41.4394 28.1831 41.634 28.7318 42C29.2806 42.3656 29.7086 42.8855 29.9617 43.4947C30.2148 44.1034 30.2817 44.774 30.1539 45.421C30.026 46.0679 29.7092 46.6621 29.2435 47.129C28.7778 47.5962 28.184 47.9145 27.5374 48.044C26.8908 48.1735 26.2203 48.1079 25.6107 47.8564C25.0011 47.6049 24.4799 47.1784 24.1128 46.6302C23.7458 46.0824 23.5494 45.438 23.5486 44.7786C23.5476 43.8943 23.8979 43.0457 24.5223 42.4199C25.1469 41.7937 25.9944 41.4414 26.8787 41.4402ZM26.9011 58.9726C26.2416 58.9734 25.5968 58.7788 25.048 58.4128C24.4992 58.0472 24.0712 57.5272 23.8181 56.9181C23.565 56.3093 23.4981 55.6387 23.626 54.9918C23.7538 54.3449 24.0707 53.7506 24.5364 53.2834C25.0021 52.8165 25.5958 52.4982 26.2424 52.3688C26.889 52.2393 27.5595 52.3045 28.1691 52.5563C28.7787 52.8078 29.2999 53.2344 29.667 53.7826C30.0341 54.3303 30.2304 54.9748 30.2312 55.6342C30.2318 56.0719 30.1461 56.5056 29.979 56.9106C29.8119 57.3152 29.5667 57.6833 29.2575 57.9932C28.9482 58.3032 28.5809 58.5493 28.1765 58.7174C27.7721 58.8854 27.3386 58.9726 26.9007 58.973L26.9011 58.9726Z" fill="url(#paint2_linear_21_69)"/>
<path d="M26.8688 31.9673C26.3582 31.9754 25.8712 32.1841 25.5132 32.5482C25.1552 32.9125 24.9548 33.4029 24.9555 33.9137C24.9561 34.4244 25.1577 34.9143 25.5167 35.2776C25.8756 35.6409 26.3631 35.8483 26.8738 35.8551C27.3893 35.8545 27.8835 35.649 28.2476 35.284C28.6117 34.919 28.8159 34.4243 28.8152 33.9087C28.8146 33.3932 28.6091 32.8989 28.2441 32.5349C27.8791 32.1708 27.3844 31.9666 26.8688 31.9673Z" fill="url(#paint3_linear_21_69)"/>
<path d="M26.8823 42.831H26.8786C26.3679 42.8389 25.881 43.0476 25.5229 43.4119C25.1649 43.7763 24.9646 44.2668 24.9652 44.7772C24.9659 45.288 25.1675 45.7781 25.5264 46.1412C25.8854 46.5047 26.3729 46.7122 26.8836 46.7188C27.3992 46.7184 27.8934 46.513 28.2576 46.1478C28.6219 45.7831 28.8261 45.288 28.8256 44.7726C28.825 44.2568 28.6197 43.7626 28.2547 43.3987C27.8897 43.0343 27.395 42.8302 26.8794 42.8306L26.8823 42.831Z" fill="url(#paint4_linear_21_69)"/>
<path d="M26.8963 53.6941H26.8942C26.3835 53.702 25.8966 53.9107 25.5386 54.2751C25.1806 54.6394 24.9802 55.1299 24.9809 55.6403C24.9815 56.1511 25.1831 56.6412 25.5421 57.0043C25.901 57.3678 26.3885 57.5753 26.8992 57.5819C27.4147 57.5811 27.9089 57.3761 28.2731 57.0109C28.6372 56.6458 28.8414 56.1511 28.8408 55.6357C28.8402 55.1203 28.6348 54.6261 28.2698 54.2618C27.9049 53.8978 27.4102 53.6937 26.8946 53.6941H26.8963Z" fill="url(#paint5_linear_21_69)"/>
<path d="M37.3921 25.9928C35.7488 17.7453 32.5838 7.91056 26.8349 7.91056H26.778C22.1843 7.96409 18.6633 14.0558 16.3117 26.0173L16.3067 26.043L15.6494 29.7835C15.3834 31.4753 15.1469 33.2315 14.944 35.0187C14.9036 35.3742 14.8644 35.7325 14.8265 36.0935C14.5751 38.4912 14.3771 41.0092 14.236 43.5945C13.5244 43.0455 12.8481 42.4521 12.2114 41.8176C9.19402 38.8041 7.16993 34.9402 6.41049 30.7439C5.65106 26.5475 6.19255 22.2194 7.96243 18.3395C9.73227 14.4596 12.6459 11.2135 16.3127 9.0362C19.9794 6.85895 24.2242 5.85469 28.4779 6.15794C32.7316 6.4612 36.7909 8.05754 40.1117 10.733C43.4328 13.4084 45.8562 17.035 47.0575 21.1268C48.2592 25.2185 48.1812 29.5798 46.8342 33.6259C45.4868 37.672 42.9352 41.2096 39.5209 43.7646C39.3731 41.113 39.1644 38.5273 38.8984 36.0632C38.8594 35.7036 38.8194 35.3453 38.7785 34.9884C38.571 33.2041 38.332 31.4475 38.0614 29.7599L37.3921 25.9928Z" fill="url(#paint6_linear_21_69)"/>
<path d="M26.9673 0.000847487C20.996 0.0169397 15.1979 2.00917 10.4778 5.66666C5.75765 9.32419 2.38096 14.4412 0.874572 20.2195C-0.631815 25.9977 -0.183179 32.112 2.15049 37.6085C4.48415 43.1048 8.57158 47.6744 13.775 50.6037C13.8303 49.4779 13.8918 48.3645 13.9593 47.2644C10.8121 45.2307 8.18014 42.494 6.27075 39.2697C4.11291 35.6137 2.96024 31.4522 2.92965 27.207C2.89905 22.9619 3.99164 18.7842 6.09659 15.0975C8.20152 11.4109 11.2439 8.34644 14.9153 6.21496C18.5867 4.08352 22.7565 2.96088 27.0017 2.96088C31.247 2.96088 35.4167 4.08352 39.0881 6.21496C42.7593 8.34644 45.8018 11.4109 47.907 15.0975C50.0117 18.7842 51.1043 22.9619 51.0736 27.207C51.0433 31.4522 49.8905 35.6137 47.7327 39.2697C45.7732 42.5786 43.0535 45.3726 39.7985 47.4209C39.866 48.5156 39.9284 49.621 39.9856 50.7377C45.252 47.8525 49.4079 43.2957 51.7973 37.7867C54.1867 32.2775 54.6738 26.1296 53.1812 20.313C51.689 14.4963 48.302 9.34228 43.5552 5.66413C38.8087 1.98595 32.9723 -0.006911 26.9673 1.80077e-05V0.000847487Z" fill="url(#paint7_linear_21_69)"/>
<defs>
<linearGradient id="paint0_linear_21_69" x1="26.8609" y1="78.7713" x2="26.8609" y2="25.6468" gradientUnits="userSpaceOnUse">
<stop stop-color="#1153FC"/>
<stop offset="1" stop-color="#5581F1"/>
</linearGradient>
<linearGradient id="paint1_linear_21_69" x1="27.0603" y1="78.7805" x2="27.0603" y2="25.6534" gradientUnits="userSpaceOnUse">
<stop stop-color="#1153FC"/>
<stop offset="1" stop-color="#5581F1"/>
</linearGradient>
<linearGradient id="paint2_linear_21_69" x1="27.0602" y1="78.7918" x2="27.0602" y2="25.6683" gradientUnits="userSpaceOnUse">
<stop stop-color="#1153FC"/>
<stop offset="1" stop-color="#5581F1"/>
</linearGradient>
<linearGradient id="paint3_linear_21_69" x1="26.8854" y1="78.7769" x2="26.8854" y2="25.6495" gradientUnits="userSpaceOnUse">
<stop stop-color="#1153FC"/>
<stop offset="1" stop-color="#5581F1"/>
</linearGradient>
<linearGradient id="paint4_linear_21_69" x1="26.8954" y1="78.7776" x2="26.8954" y2="25.6523" gradientUnits="userSpaceOnUse">
<stop stop-color="#1153FC"/>
<stop offset="1" stop-color="#5581F1"/>
</linearGradient>
<linearGradient id="paint5_linear_21_69" x1="26.9108" y1="78.7785" x2="26.9108" y2="25.6511" gradientUnits="userSpaceOnUse">
<stop stop-color="#1153FC"/>
<stop offset="1" stop-color="#5581F1"/>
</linearGradient>
<linearGradient id="paint6_linear_21_69" x1="26.9906" y1="78.7505" x2="26.9906" y2="25.6503" gradientUnits="userSpaceOnUse">
<stop stop-color="#1153FC"/>
<stop offset="1" stop-color="#5581F1"/>
</linearGradient>
<linearGradient id="paint7_linear_21_69" x1="27.0147" y1="78.7958" x2="27.0147" y2="25.6733" gradientUnits="userSpaceOnUse">
<stop stop-color="#1153FC"/>
<stop offset="1" stop-color="#5581F1"/>
</linearGradient>
</defs>
</svg>
