<svg width="81" height="80" viewBox="0 0 81 80" fill="none" xmlns="http://www.w3.org/2000/svg">
<path d="M7.83014 35.0813C7.50522 33.869 7.50518 32.5926 7.83001 31.3803C8.15485 30.1679 8.7931 29.0625 9.68063 28.175L28.1746 9.68105C29.062 8.79352 30.1675 8.15527 31.3798 7.83044C32.5922 7.5056 33.8686 7.50565 35.0809 7.83057L52.3867 12.4676C52.5668 10.0968 53.3922 7.82041 54.7735 5.88504L33.93 0.300618C32.4339 -0.100215 30.8587 -0.100206 29.3627 0.300645C27.8666 0.701497 26.5024 1.48907 25.4071 2.58422L2.58421 25.4071C1.48906 26.5024 0.701494 27.8666 0.300645 29.3626C-0.100206 30.8587 -0.100215 32.434 0.300618 33.93L6.09987 55.5729C7.99566 54.1252 10.2527 53.226 12.6247 52.9738L7.83014 35.0813Z" fill="#18CDCA"/>
<path d="M67.2162 26.4283L72.1709 44.9188C72.4959 46.1313 72.4955 47.4076 72.1709 48.6197C71.8458 49.8323 71.2075 50.9376 70.32 51.8251L51.826 70.3195C50.9385 71.207 49.8332 71.8449 48.6206 72.17C47.4085 72.4946 46.1318 72.4946 44.9197 72.17L27.0272 67.3754C26.7751 69.7475 25.876 72.0046 24.4281 73.9002L46.071 79.6995C47.5669 80.1005 49.1423 80.1005 50.6382 79.6995C52.1346 79.2985 53.4986 78.5113 54.5939 77.4159L77.4168 54.593C78.5122 53.4976 79.2994 52.1336 79.7004 50.6373C80.1014 49.1414 80.1014 47.566 79.7004 46.0701L73.6824 23.6169C71.8267 25.1316 69.5892 26.1044 67.2162 26.4283Z" fill="#18CDCA"/>
<path d="M6.62021 58.5574C5.15445 60.023 4.15625 61.8908 3.75185 63.9236C3.34744 65.9568 3.55499 68.0641 4.34825 69.9793C5.14147 71.894 6.48481 73.531 8.20831 74.6827C9.93185 75.8341 11.9581 76.449 14.031 76.449C16.1039 76.449 18.1302 75.8341 19.8537 74.6827C21.5773 73.531 22.9206 71.894 23.7138 69.9793C24.5071 68.0641 24.7146 65.9568 24.3102 63.9236C23.9058 61.8908 22.9076 60.023 21.4419 58.5574C19.4749 56.595 16.8097 55.4927 14.031 55.4927C11.2524 55.4927 8.58722 56.595 6.62021 58.5574Z" fill="#4F80E1"/>
<path d="M58.0158 6.07992C56.5502 7.54563 55.5517 9.41308 55.1476 11.4461C54.7432 13.4792 54.9506 15.5865 55.7439 17.5016C56.5372 19.4166 57.8804 21.0535 59.6037 22.2051C61.3275 23.3568 63.3537 23.9714 65.4264 23.9714C67.4995 23.9714 69.5258 23.3568 71.2495 22.2051C72.9728 21.0535 74.316 19.4166 75.1093 17.5016C75.9026 15.5865 76.1101 13.4792 75.7056 11.4461C75.3016 9.41308 74.303 7.54563 72.8374 6.07992C70.8707 4.11733 68.2052 3.01514 65.4264 3.01514C62.6481 3.01514 59.9826 4.11733 58.0158 6.07992Z" fill="#4F80E1"/>
<path d="M46.1522 67.7815C45.7312 67.7815 45.3124 67.7264 44.9058 67.6175L28.5275 63.2286C27.9813 60.3123 26.5665 57.629 24.4685 55.5312C22.3705 53.4333 19.6873 52.0181 16.771 51.4722L12.3826 35.0951C12.1651 34.2783 12.1657 33.4186 12.3845 32.6021C12.6033 31.7855 13.0326 31.0407 13.6294 30.442L30.44 13.631C31.038 13.033 31.7828 12.603 32.5997 12.3841C33.4166 12.1652 34.2767 12.1653 35.0936 12.3842L51.0127 16.6498C51.6442 19.5481 53.1362 22.188 55.2935 24.224C57.4508 26.2598 60.1727 27.5967 63.1025 28.0595L67.6159 44.9074C67.8333 45.7246 67.8329 46.5843 67.6137 47.4006C67.395 48.2173 66.9658 48.9621 66.3686 49.5609L49.558 66.3715C49.1119 66.8198 48.5807 67.1757 47.9962 67.4174C47.4116 67.6596 46.7849 67.7832 46.1522 67.7815Z" fill="#4F80E1"/>
</svg>
