<svg width="109" height="80" viewBox="0 0 109 80" fill="none" xmlns="http://www.w3.org/2000/svg">
<path d="M108.153 51.4021C108.153 56.3983 106.844 61.3071 104.356 65.6401C101.869 69.9727 98.2893 73.5783 93.9752 76.0975C89.6607 78.617 84.7614 79.9618 79.7656 79.9987C74.7694 80.0355 69.8509 78.7631 65.4999 76.3077C62.5747 78.4572 59.0956 79.7243 55.4735 79.9598C51.8514 80.1953 48.2374 79.3891 45.0586 77.637C41.1153 79.2089 36.9072 80.0111 32.6621 79.9999C14.6517 79.9999 0 65.7891 0 48.3207C0 30.8522 14.6517 16.6414 32.6621 16.6414H32.6697C36.2347 10.693 41.5218 5.96711 47.8312 3.08888C54.1407 0.210657 61.175 -0.684254 68.0042 0.52254C74.8335 1.72933 81.1353 4.98097 86.0762 9.84728C91.0167 14.7136 94.3641 20.9653 95.6745 27.7752C99.5341 30.3867 102.691 33.9082 104.867 38.0287C107.043 42.1494 108.172 46.7423 108.153 51.4021ZM65.2104 68.9778C65.8752 68.9774 66.5244 69.1797 67.0715 69.5574C69.4997 71.2258 72.2383 72.3905 75.1246 72.9824C78.011 73.5743 80.9867 73.5811 83.8759 73.0028C86.7647 72.4241 89.5085 71.2723 91.9447 69.615C94.3809 67.9578 96.4599 65.8287 98.0587 63.3537C99.6574 60.879 100.744 58.1084 101.253 55.2064C101.763 52.3044 101.685 49.3295 101.025 46.4583C100.364 43.5868 99.1348 40.877 97.409 38.4889C95.6829 36.101 93.4954 34.0834 90.9763 32.5555C90.563 32.3045 90.2105 31.9654 89.9438 31.5623C89.6771 31.1592 89.5025 30.7022 89.4328 30.2238C88.5817 24.4298 85.9152 19.0549 81.8169 14.8719C77.7183 10.6889 72.3989 7.91332 66.6237 6.94424C60.8482 5.97512 54.9144 6.86246 49.6747 9.47858C44.4354 12.0947 40.1609 16.3049 37.4652 21.5038C37.1737 22.0685 36.7239 22.5359 36.1708 22.8489C35.6178 23.1619 34.9855 23.3068 34.3513 23.266C33.7025 23.226 33.1647 23.2067 32.6593 23.2067C18.2678 23.2067 6.55933 34.4739 6.55933 48.3223C6.55933 62.1706 18.2694 73.4374 32.6593 73.4374C36.5571 73.4498 40.4105 72.6079 43.948 70.9715C44.4655 70.7324 45.0362 70.6319 45.6041 70.6799C46.172 70.7284 46.7175 70.9238 47.1868 71.247C49.5594 72.8787 52.4241 73.6368 55.2933 73.3925C58.162 73.1482 60.8574 71.9167 62.9199 69.9074C63.5331 69.3106 64.3549 68.977 65.2104 68.9778Z" fill="#4F80E1"/>
<path d="M36.9218 36.7175H32.0442C31.8501 36.7175 31.664 36.7946 31.5268 36.9318C31.3896 37.0691 31.3125 37.2552 31.3125 37.4492V48.9118H31.3249L37.6528 42.584V37.4496C37.6528 37.2556 37.5759 37.0696 37.4388 36.9323C37.3018 36.795 37.1158 36.7177 36.9218 36.7175Z" fill="#292C44"/>
<path d="M56.8989 31.371C56.1572 30.6292 55.1507 30.2124 54.1018 30.2124C53.0525 30.2124 52.0465 30.6292 51.3048 31.371L38.8866 43.7891L37.6534 45.0227L31.3256 51.3505L16.8228 65.8533C20.6957 68.6852 25.2549 70.4313 30.0288 70.9103C34.8026 71.3897 39.6179 70.5851 43.9765 68.5794C44.4939 68.3407 45.0642 68.2406 45.6321 68.2887C46.1996 68.3371 46.7451 68.5326 47.2145 68.8554C49.5866 70.487 52.4518 71.2451 55.3205 71.0008C58.1893 70.7565 60.8846 69.5246 62.9468 67.5153C63.4914 66.9863 64.2027 66.6619 64.9593 66.5982C65.7162 66.5345 66.4715 66.7348 67.0971 67.1653C70.8313 69.7373 75.2696 71.0926 79.8036 71.0445C84.3377 70.9964 88.7463 69.5482 92.4253 66.8978L56.8989 31.371ZM53.8091 61.2347C53.8091 61.3833 53.7498 61.5259 53.6449 61.6312C53.5395 61.7362 53.3969 61.7954 53.2484 61.7954H48.6919C48.5433 61.7954 48.4008 61.7362 48.2954 61.6312C48.1901 61.5259 48.1312 61.3833 48.1312 61.2347V56.6783C48.1312 56.5297 48.1901 56.3871 48.2954 56.2818C48.4008 56.1769 48.5433 56.1176 48.6919 56.1176H53.2484C53.3969 56.1176 53.5395 56.1769 53.6449 56.2818C53.7498 56.3871 53.8091 56.5297 53.8091 56.6783V61.2347ZM53.8091 54.3342C53.8091 54.4828 53.7498 54.6254 53.6449 54.7307C53.5395 54.836 53.3969 54.8949 53.2484 54.8949H48.6919C48.5433 54.8949 48.4008 54.836 48.2954 54.7307C48.1901 54.6254 48.1312 54.4828 48.1312 54.3342V49.7778C48.1312 49.6292 48.1901 49.4866 48.2954 49.3813C48.4008 49.2763 48.5433 49.2171 48.6919 49.2171H53.2484C53.3969 49.2171 53.5395 49.2763 53.6449 49.3813C53.7498 49.4866 53.8091 49.6292 53.8091 49.7778V54.3342ZM61.1169 61.2347C61.1169 61.3833 61.0576 61.5259 60.9527 61.6312C60.8474 61.7362 60.7048 61.7954 60.5562 61.7954H55.9998C55.8512 61.7954 55.7086 61.7362 55.6033 61.6312C55.4979 61.5259 55.4391 61.3833 55.4391 61.2347V56.6783C55.4391 56.5297 55.4979 56.3871 55.6033 56.2818C55.7086 56.1769 55.8512 56.1176 55.9998 56.1176H60.5562C60.7048 56.1176 60.8474 56.1769 60.9527 56.2818C61.0576 56.3871 61.1169 56.5297 61.1169 56.6783V61.2347ZM61.1169 54.3342C61.1169 54.4828 61.0576 54.6254 60.9527 54.7307C60.8474 54.836 60.7048 54.8949 60.5562 54.8949H55.9998C55.8512 54.8949 55.7086 54.836 55.6033 54.7307C55.4979 54.6254 55.4391 54.4828 55.4391 54.3342V49.7778C55.4391 49.6292 55.4979 49.4866 55.6033 49.3813C55.7086 49.2763 55.8512 49.2171 55.9998 49.2171H60.5562C60.7048 49.2171 60.8474 49.2763 60.9527 49.3813C61.0576 49.4866 61.1169 49.6292 61.1169 49.7778V54.3342Z" fill="#292C44"/>
</svg>
