<svg width="80" height="80" viewBox="0 0 80 80" fill="none" xmlns="http://www.w3.org/2000/svg">
<path d="M49.2327 18.4608C39.0373 18.4608 18.6148 10.1959 18.6148 0H18.4639C18.4639 8.1603 21.7055 15.9864 27.4756 21.7567C33.2456 27.527 41.0715 30.7689 49.2319 30.7692C54.1281 30.7692 58.8238 32.7142 62.2861 36.1763C65.7484 39.6384 67.6934 44.3342 67.6934 49.2304C67.6946 54.1265 65.7504 58.823 62.2888 62.2857C58.8273 65.7488 54.1319 67.6946 49.2357 67.6957C44.3392 67.6965 39.6431 65.7523 36.1802 62.2907C32.7173 58.8292 30.7713 54.1338 30.7703 49.2377C30.7702 45.1969 29.9743 41.1957 28.4278 37.4628C26.8814 33.7297 24.6149 30.3378 21.7576 27.4806C18.9003 24.6235 15.5082 22.3572 11.775 20.811C8.04188 19.2648 4.04069 18.4691 0 18.4693V18.619C10.194 18.619 18.4589 39.0327 18.4627 49.23H18.4608C18.4608 55.3157 20.2652 61.2646 23.6461 66.3246C27.0269 71.3846 31.8323 75.3284 37.4546 77.6573C43.0769 79.9865 49.2634 80.5961 55.2323 79.4088C61.2007 78.2219 66.6834 75.2915 70.9869 70.9888C75.29 66.6857 78.2207 61.2034 79.4084 55.2346C80.5961 49.2661 79.9869 43.0796 77.6584 37.4571C75.33 31.8346 71.3865 27.0289 66.3269 23.6476C61.2669 20.2663 55.3181 18.4613 49.2327 18.4608Z" fill="url(#paint0_linear_21_16)"/>
<defs>
<linearGradient id="paint0_linear_21_16" x1="63.76" y1="69.2" x2="17.28" y2="5.36" gradientUnits="userSpaceOnUse">
<stop offset="0.295" stop-color="#E73959"/>
<stop offset="0.384" stop-color="#E73D58"/>
<stop offset="0.477" stop-color="#E74955"/>
<stop offset="0.571" stop-color="#E95E51"/>
<stop offset="0.666" stop-color="#EA7B4B"/>
<stop offset="0.761" stop-color="#EDA044"/>
<stop offset="0.857" stop-color="#EFCE3B"/>
<stop offset="0.868" stop-color="#F0D43A"/>
</linearGradient>
</defs>
</svg>
