<svg width="61" height="80" viewBox="0 0 61 80" fill="none" xmlns="http://www.w3.org/2000/svg">
<path d="M51.2363 16.0508C48.8477 16.0535 46.5576 17.0036 44.8691 18.6927C43.1802 20.3817 42.2301 22.6718 42.2278 25.0604V47.5013C42.2531 49.1072 41.9589 50.7019 41.3619 52.1928C40.7648 53.6837 39.8774 55.0407 38.7508 56.1854C37.624 57.3301 36.281 58.239 34.7997 58.8594C33.3184 59.4799 31.7285 59.7993 30.1225 59.7993C28.5166 59.7993 26.9266 59.4799 25.4454 58.8594C23.9641 58.239 22.621 57.3301 21.4944 56.1854C20.3678 55.0407 19.4802 53.6837 18.8832 52.1928C18.2863 50.7019 17.9919 49.1072 18.0173 47.5013V25.0604C18.0173 22.6711 17.0681 20.3797 15.3787 18.6903C13.6892 17.0008 11.3979 16.0517 9.00863 16.0517C6.6194 16.0517 4.32801 17.0008 2.63856 18.6903C0.949113 20.3797 0 22.6711 0 25.0604V49.8774C-1.1789e-07 53.833 0.779139 57.7502 2.29294 61.4049C3.80674 65.0596 6.02556 68.3801 8.82269 71.1774C11.6198 73.9745 14.9405 76.1933 18.5951 77.7072C22.2498 79.2207 26.1668 79.9999 30.1225 79.9999C34.0783 79.9999 37.9954 79.2207 41.65 77.7072C45.3047 76.1933 48.6252 73.9745 51.4222 71.1774C54.2196 68.3801 56.4384 65.0596 57.952 61.4049C59.4659 57.7502 60.2451 53.833 60.2451 49.8774V25.0604C60.2424 22.6718 59.2928 20.3817 57.6038 18.6927C55.9149 17.0036 53.6248 16.0535 51.2363 16.0508ZM56.3038 49.8755C56.3038 56.8194 53.5452 63.4785 48.6354 68.3884C43.7255 73.2982 37.0662 76.0568 30.1225 76.0568C23.1788 76.0568 16.5196 73.2982 11.6096 68.3884C6.6997 63.4785 3.94131 56.8194 3.94131 49.8755V25.0604C3.95285 23.724 4.49177 22.4463 5.44086 21.5054C6.3899 20.5645 7.6722 20.0366 9.00863 20.0366C10.3451 20.0366 11.6274 20.5645 12.5764 21.5054C13.5254 22.4463 14.0644 23.724 14.0759 25.0604V47.5013C14.0759 51.7572 15.7666 55.8388 18.7759 58.8481C21.7852 61.8575 25.8667 63.5479 30.1225 63.5479C34.3784 63.5479 38.46 61.8575 41.4694 58.8481C44.4783 55.8388 46.1691 51.7572 46.1691 47.5013V25.0604C46.1691 23.7164 46.7028 22.4275 47.6533 21.4772C48.6037 20.5269 49.8925 19.993 51.2363 19.993C52.5805 19.993 53.8692 20.5269 54.8197 21.4772C55.7697 22.4275 56.3038 23.7164 56.3038 25.0604V49.8755Z" fill="url(#paint0_linear_21_33)"/>
<path d="M28.1518 20.6439V46.6241C28.1518 47.1468 28.3594 47.6481 28.729 48.0177C29.0986 48.3873 29.5998 48.5947 30.1225 48.5947C30.6451 48.5947 31.1463 48.3873 31.5159 48.0177C31.8855 47.6481 32.0931 47.1468 32.0931 46.6241V20.6439C34.6375 20.1536 36.9077 18.7327 38.4607 16.6584C40.0135 14.5842 40.7376 12.0056 40.4913 9.42619C40.245 6.84676 39.0464 4.45177 37.129 2.70877C35.2117 0.965787 32.7136 0 30.1225 0C27.5313 0 25.0332 0.965787 23.1159 2.70877C21.1986 4.45177 19.9998 6.84676 19.7536 9.42619C19.5074 12.0056 20.2314 14.5842 21.7843 16.6584C23.3372 18.7327 25.6075 20.1536 28.1518 20.6439ZM30.1225 3.94555C31.4031 3.94555 32.655 4.32531 33.7198 5.03682C34.7847 5.74833 35.6146 6.7596 36.1047 7.94279C36.5947 9.12597 36.723 10.4279 36.4731 11.684C36.2232 12.94 35.6065 14.0938 34.7009 14.9993C33.7953 15.9048 32.6415 16.5215 31.3855 16.7713C30.1294 17.0211 28.8275 16.8928 27.6443 16.4027C26.4612 15.9125 25.4499 15.0826 24.7384 14.0177C24.027 12.9528 23.6473 11.7009 23.6474 10.4202C23.6494 8.70359 24.3322 7.05782 25.5461 5.84401C26.76 4.6302 28.4058 3.94743 30.1225 3.94555Z" fill="url(#paint1_linear_21_33)"/>
<defs>
<linearGradient id="paint0_linear_21_33" x1="0" y1="48.0256" x2="60.2451" y2="48.0256" gradientUnits="userSpaceOnUse">
<stop stop-color="#EC441E"/>
<stop offset="1" stop-color="#EE2A4A"/>
</linearGradient>
<linearGradient id="paint1_linear_21_33" x1="19.7064" y1="24.2974" x2="40.5385" y2="24.2974" gradientUnits="userSpaceOnUse">
<stop stop-color="#EC441E"/>
<stop offset="1" stop-color="#EE2A4A"/>
</linearGradient>
</defs>
</svg>
