<svg width="158" height="80" viewBox="0 0 158 80" fill="none" xmlns="http://www.w3.org/2000/svg">
<path d="M33.2003 57.1428C33.9507 57.1428 34.6938 56.9952 35.3871 56.708C36.0804 56.4209 36.7103 56 37.241 55.4694C37.7716 54.9389 38.1926 54.3089 38.4798 53.6156C38.767 52.9223 38.9148 52.1793 38.9148 51.4289C38.9148 40.8201 43.1291 30.6458 50.6306 23.1443C58.132 15.6428 68.3065 11.4284 78.9152 11.4284C89.5239 11.4284 99.6984 15.6428 107.2 23.1443C114.702 30.6458 118.916 40.8201 118.916 51.4289C118.93 52.9345 119.539 54.3733 120.609 55.4327C121.679 56.492 123.124 57.0863 124.63 57.0863C126.136 57.0863 127.581 56.492 128.65 55.4327C129.721 54.3733 130.329 52.9345 130.344 51.4289C130.344 44.6751 129.014 37.9875 126.429 31.7479C123.845 25.5083 120.057 19.8388 115.281 15.0632C110.505 10.2875 104.836 6.49932 98.5962 3.91479C92.3563 1.33024 85.6691 0 78.9152 0C72.1613 0 65.4741 1.33024 59.2342 3.91479C52.9946 6.49932 47.3251 10.2875 42.5495 15.0632C37.7739 19.8388 33.9856 25.5083 31.4011 31.7479C28.8166 37.9875 27.4863 44.6751 27.4863 51.4289C27.4863 52.9443 28.0884 54.3977 29.1599 55.4692C30.2315 56.5408 31.6848 57.1428 33.2003 57.1428Z" fill="url(#paint0_linear_21_50)"/>
<path d="M152.059 68.571H101.754C105.479 63.6329 107.49 57.6144 107.484 51.4286C107.484 43.8509 104.473 36.5836 99.1155 31.2254C93.7569 25.8671 86.4896 22.8569 78.9119 22.8569C71.3347 22.8569 64.0674 25.8671 58.7088 31.2254C53.3507 36.5836 50.3405 43.8509 50.3405 51.4286C50.3405 52.9442 50.9425 54.3977 52.0142 55.4694C53.0859 56.5411 54.5394 57.1431 56.055 57.1431C57.5707 57.1431 59.0243 56.5411 60.0957 55.4694C61.1676 54.3977 61.7695 52.9442 61.7695 51.4286C61.7695 48.038 62.7747 44.7236 64.6584 41.9044C66.5421 39.0851 69.2194 36.8878 72.3519 35.5902C75.4844 34.2926 78.9313 33.953 82.2566 34.6144C85.5819 35.2759 88.6369 36.9085 91.034 39.306C93.4318 41.7034 95.0645 44.758 95.7262 48.0834C96.3874 51.4088 96.048 54.8557 94.7507 57.988C93.4529 61.1205 91.2559 63.7984 88.4366 65.6821C85.6173 67.5658 82.3028 68.571 78.9124 68.571H5.77161C5.01641 68.5636 4.26719 68.7057 3.56729 68.9898C2.86738 69.2733 2.23068 69.6932 1.69398 70.2243C1.15728 70.756 0.731225 71.3881 0.440466 72.0852C0.149704 72.7823 0 73.5302 0 74.2855C0 75.0403 0.149704 75.7882 0.440466 76.4853C0.731225 77.1824 1.15728 77.8145 1.69398 78.3462C2.23068 78.8773 2.86738 79.2972 3.56729 79.5807C4.26719 79.8648 5.01641 80.0069 5.77161 79.9995H152.059C153.564 79.9846 155.003 79.3759 156.063 78.3057C157.122 77.2361 157.716 75.791 157.716 74.2855C157.716 72.7795 157.122 71.3344 156.063 70.2648C155.003 69.1946 153.564 68.5858 152.059 68.571Z" fill="url(#paint1_linear_21_50)"/>
<defs>
<linearGradient id="paint0_linear_21_50" x1="27.4863" y1="28.5714" x2="130.344" y2="28.5714" gradientUnits="userSpaceOnUse">
<stop stop-color="#DD1B60"/>
<stop offset="0.243" stop-color="#DE1D5B"/>
<stop offset="0.495" stop-color="#E2254F"/>
<stop offset="0.751" stop-color="#EA313A"/>
<stop offset="1" stop-color="#F4431F"/>
</linearGradient>
<linearGradient id="paint1_linear_21_50" x1="0" y1="51.4283" x2="157.716" y2="51.4283" gradientUnits="userSpaceOnUse">
<stop stop-color="#DD1B60"/>
<stop offset="0.243" stop-color="#DE1D5B"/>
<stop offset="0.495" stop-color="#E2254F"/>
<stop offset="0.751" stop-color="#EA313A"/>
<stop offset="1" stop-color="#F4431F"/>
</linearGradient>
</defs>
</svg>
