<svg width="58" height="80" viewBox="0 0 58 80" fill="none" xmlns="http://www.w3.org/2000/svg">
<path d="M48.37 6.49365H44.4751C43.071 6.49365 41.9329 7.63185 41.9329 9.03589V23.1932C41.9329 24.5973 43.071 25.7355 44.4751 25.7355H48.37C49.7742 25.7355 50.9122 24.5973 50.9122 23.1932V9.03589C50.9122 7.63185 49.7742 6.49365 48.37 6.49365Z" fill="#41529F"/>
<path d="M33.8064 78.7162V65.3042H50.3163L35.9964 79.6245C35.8169 79.8041 35.5882 79.9263 35.3392 79.9756C35.0903 80.025 34.8322 79.9998 34.5977 79.9025C34.3633 79.8053 34.1629 79.6405 34.022 79.4292C33.8812 79.2184 33.8061 78.9701 33.8064 78.7162Z" fill="#41529F"/>
<path d="M51.2008 64.4702H33.8064V66.0778H49.5097L51.2008 64.4702Z" fill="#324293"/>
<path d="M54.7768 24.7601L31.0173 0.998319C30.3747 0.358937 29.5051 0 28.5986 0C27.6922 0 26.8226 0.358937 26.18 0.998319L2.42086 24.7601C0.971011 26.3726 0.116716 28.4327 0 30.598V34.7835C12.9805 44.441 28.7344 49.6446 44.9133 49.6186C49.0279 49.6194 53.1358 49.2849 57.1962 48.6187V30.598C57.0781 28.4333 56.2248 26.3737 54.7768 24.7601Z" fill="#41529F"/>
<path d="M44.9141 53.4675C28.7352 53.4931 12.9813 48.2894 0.000778198 38.6323V61.2415C0.00371427 62.148 0.365032 63.0162 1.00586 63.6568C1.64668 64.2979 2.51498 64.659 3.42124 64.662H53.7769C54.6829 64.659 55.5511 64.2975 56.1922 63.6568C56.8328 63.0158 57.194 62.1476 57.197 61.2415V52.4675C53.1366 53.1338 49.0287 53.4682 44.9141 53.4675Z" fill="#41529F"/>
</svg>
