<svg width="81" height="80" viewBox="0 0 81 80" fill="none" xmlns="http://www.w3.org/2000/svg">
<path d="M18.7157 51.2889C17.8673 50.3406 17.3674 49.1316 17.2985 47.861V32.0167C17.3672 30.7459 17.8671 29.5367 18.7157 28.5886L19.8365 27.4675C20.2123 27.0907 20.4234 26.5803 20.4234 26.0481C20.4234 25.5158 20.2123 25.0053 19.8365 24.6287L7.94815 12.7344C7.57117 12.3588 7.06079 12.1479 6.52872 12.1479C5.99664 12.1479 5.48626 12.3588 5.10928 12.7344L0.583985 17.2614C0.20988 17.639 0 18.1491 0 18.6808C0 19.2124 0.20988 19.7226 0.583985 20.1002L9.06891 28.5883C9.91902 29.5355 10.4196 30.7452 10.4876 32.0163V47.8606C10.4198 49.1312 9.91913 50.3399 9.06891 51.2863L0.583985 59.7776C0.20988 60.1553 0 60.6655 0 61.1969C0 61.7286 0.20988 62.2387 0.583985 62.6165L5.10928 67.1433C5.4863 67.5187 5.99668 67.7297 6.52872 67.7297C7.06075 67.7297 7.57113 67.5187 7.94815 67.1433L19.8365 55.2482C20.2123 54.8712 20.4234 54.361 20.4234 53.8289C20.4234 53.2965 20.2123 52.7863 19.8365 52.4097L18.7157 51.2889Z" fill="#583BD1"/>
<path d="M51.3871 61.2767C50.4395 62.1254 49.2312 62.6261 47.961 62.6963H32.1271C30.8561 62.6261 29.6468 62.1257 28.698 61.2767L27.5799 60.1525C27.2016 59.7782 26.6911 59.5684 26.1592 59.5684C25.6272 59.5684 25.1167 59.7782 24.7384 60.1525L12.8516 72.0469C12.4763 72.4246 12.2656 72.9356 12.2656 73.468C12.2656 74.0005 12.4763 74.5114 12.8516 74.8888L17.3769 79.4159C17.7547 79.7903 18.2649 80.0001 18.7967 80.0001C19.3284 80.0001 19.8386 79.7903 20.2165 79.4159L28.6996 70.9235C29.648 70.0752 30.8569 69.5748 32.1274 69.5046H47.9659C49.2361 69.5744 50.4444 70.0748 51.392 70.9235L59.8788 79.4159C60.2565 79.7903 60.7663 80.0001 61.298 80.0001C61.8293 80.0001 62.3395 79.7903 62.7169 79.4159L67.2422 74.8888C67.6176 74.5114 67.8282 74.0005 67.8282 73.468C67.8282 72.9356 67.6176 72.4246 67.2422 72.0469L55.3467 60.1518C54.9693 59.7774 54.4595 59.5676 53.9282 59.5676C53.3969 59.5676 52.8867 59.7774 52.5093 60.1518L51.3871 61.2767Z" fill="#583BD1"/>
<path d="M61.6566 28.7102C62.5072 29.6593 63.0087 30.8704 63.0778 32.1432V47.9815C63.0083 49.2536 62.5068 50.4638 61.6566 51.4117L60.5355 52.5355C60.1608 52.9128 59.9506 53.423 59.9506 53.9551C59.9506 54.4868 60.1608 54.997 60.5355 55.3743L72.4272 67.2672C72.8042 67.6426 73.3147 67.8532 73.8464 67.8532C74.3785 67.8532 74.8887 67.6426 75.2657 67.2672L79.791 62.7377C80.1664 62.3607 80.3774 61.8502 80.3774 61.3181C80.3774 60.786 80.1664 60.2755 79.791 59.8985L71.308 51.4102C70.4574 50.4623 69.9555 49.2521 69.8861 47.98L69.8883 32.1417C69.9566 30.8689 70.4574 29.6578 71.308 28.7087L79.791 20.2206C80.1664 19.8444 80.3774 19.3344 80.3774 18.8028C80.3774 18.2711 80.1664 17.7611 79.791 17.3849L75.2657 12.8552C75.0793 12.6688 74.8581 12.5209 74.6147 12.42C74.371 12.3191 74.1102 12.2671 73.8464 12.2671C73.583 12.2671 73.3219 12.3191 73.0785 12.42C72.8347 12.5209 72.6136 12.6688 72.4272 12.8552L60.5355 24.7476C60.1608 25.1249 59.9506 25.6353 59.9506 26.1672C59.9506 26.6991 60.1608 27.2094 60.5355 27.5868L61.6566 28.7102Z" fill="#583BD1"/>
<path d="M28.9847 18.723C29.9319 17.8731 31.1409 17.3723 32.4114 17.3034H48.2467C49.5169 17.3735 50.7252 17.8742 51.6731 18.723L52.7965 19.8464C52.9825 20.0328 53.2037 20.1807 53.4471 20.2816C53.6905 20.3825 53.9512 20.4344 54.2146 20.4344C54.478 20.4344 54.7391 20.3825 54.9822 20.2816C55.2256 20.1807 55.4467 20.0328 55.6331 19.8464L67.5229 7.9514C67.898 7.57377 68.1086 7.06294 68.1086 6.53049C68.1086 5.99808 67.898 5.48725 67.5229 5.10958L62.9976 0.587902C62.621 0.211457 62.1105 0 61.578 0C61.0456 0 60.535 0.211457 60.1584 0.587902L51.6735 9.076C50.7256 9.92479 49.5173 10.4255 48.2471 10.4955H32.4114C31.1409 10.4267 29.9319 9.92585 28.9847 9.076L20.4997 0.587902C20.1219 0.213748 19.6117 0.00386826 19.0801 0.00386826C18.5485 0.00386826 18.0383 0.213748 17.6605 0.587902L13.1352 5.11487C12.76 5.49245 12.5494 6.00321 12.5494 6.53558C12.5494 7.06796 12.76 7.57872 13.1352 7.9563L25.0224 19.846C25.399 20.2225 25.9096 20.4339 26.442 20.4339C26.9744 20.4339 27.485 20.2225 27.8616 19.846L28.9847 18.723Z" fill="#583BD1"/>
</svg>
