<svg width="97" height="85" viewBox="0 0 97 85" fill="none" xmlns="http://www.w3.org/2000/svg">
<path d="M83.2507 12.0039L78.5615 35.7542C78.5518 35.8017 78.5554 35.8508 78.5715 35.8966C78.5872 35.9423 78.6154 35.9829 78.6525 36.0141C78.6895 36.0453 78.7342 36.066 78.7817 36.074C78.8296 36.0821 78.8787 36.0772 78.9238 36.0598L83.9372 34.1703C83.9493 34.24 83.9613 34.312 83.9726 34.3789C85.1764 41.9646 84.2943 49.7346 81.4209 56.8573C78.547 63.98 73.7901 70.1867 67.6595 74.8131C61.5284 79.4392 54.2548 82.3106 46.6168 83.1199C38.9792 83.9291 31.2652 82.6456 24.301 79.4066C31.6034 83.4565 39.8965 85.3737 48.2353 84.9397C56.5743 84.5057 64.6237 81.7385 71.4662 76.9526C78.309 72.1667 83.6699 65.5554 86.9379 57.8711C90.2059 50.1872 91.2503 41.7395 89.9511 33.4911L95.725 33.9598C95.7741 33.9636 95.8228 33.9541 95.8671 33.9323C95.911 33.9104 95.948 33.8771 95.9746 33.8357C96.0012 33.7944 96.0157 33.7466 96.0173 33.6975C96.0185 33.6485 96.0068 33.6 95.9826 33.5571L83.752 11.9218C83.7246 11.8738 83.6831 11.8353 83.6332 11.8115C83.5833 11.7877 83.5273 11.7797 83.473 11.7887C83.4182 11.7976 83.3679 11.823 83.328 11.8615C83.2882 11.9 83.2612 11.9497 83.2507 12.0039Z" fill="url(#paint0_linear_3_21)"/>
<path d="M74.2945 61.5534C70.5067 66.3711 65.6419 70.2338 60.0915 72.8315C54.5406 75.4292 48.4583 76.6898 42.3325 76.5118C36.2065 76.3338 30.2076 74.7226 24.817 71.8072C19.4264 68.8915 14.7943 64.753 11.2923 59.7235C7.79034 54.6945 5.51601 48.9141 4.65179 42.8467C3.78763 36.7795 4.35764 30.5942 6.31616 24.7871C8.27464 18.9799 11.5671 13.7127 15.9292 9.40807C20.2914 5.10343 25.6019 1.88122 31.4345 0C23.9186 1.84721 17.0732 5.76972 11.6792 11.3201C6.28524 16.8704 2.55988 23.825 0.928113 31.3906C-0.703659 38.9562 -0.17613 46.8282 2.45053 54.1083C5.0772 61.3888 9.69721 67.7839 15.7835 72.565C21.8699 77.346 29.1774 80.3201 36.8726 81.1479C44.5678 81.9757 52.3407 80.6241 59.3048 77.247C66.2688 73.8698 72.1434 68.6036 76.2585 62.0486C80.3732 55.4937 82.563 47.914 82.5779 40.1746C82.0251 47.9708 79.1388 55.42 74.2945 61.5534Z" fill="url(#paint1_linear_3_21)"/>
<path d="M65.6758 20.1542C63.2605 23.2304 60.5139 26.0315 57.4854 28.5068C57.4548 28.532 57.4298 28.5637 57.4129 28.5996C57.396 28.6355 57.3871 28.6748 57.3871 28.7146V67.1445C57.3871 67.4538 57.2889 67.7549 57.1065 68.0045C56.9241 68.2546 56.6673 68.4398 56.373 68.534L56.3415 68.544C56.1233 68.6141 55.8918 68.6314 55.6656 68.5948C55.4393 68.5585 55.2247 68.4688 55.0399 68.3339C54.8547 68.1986 54.7041 68.0218 54.6002 67.8177C54.4964 67.6132 54.4424 67.3873 54.4424 67.1582V31.3295C54.4424 31.2803 54.4291 31.232 54.4038 31.1898C54.3784 31.1476 54.3418 31.1133 54.2979 31.0905C54.2544 31.0676 54.2053 31.0573 54.1561 31.0605C54.107 31.0637 54.0595 31.0802 54.0193 31.1085C50.0092 33.8696 45.6376 36.0644 41.0281 37.6309C40.9749 37.6488 40.9286 37.683 40.8956 37.7286C40.863 37.7743 40.8453 37.8291 40.8453 37.8853V68.9225C40.8453 69.1379 40.7974 69.3509 40.7052 69.5453C40.613 69.7402 40.4789 69.9121 40.3126 70.049C40.146 70.1859 39.9513 70.2837 39.7423 70.3365C39.5334 70.3888 39.3153 70.3945 39.104 70.3526L39.0468 70.3413C38.7171 70.2761 38.4204 70.0981 38.2074 69.838C37.9944 69.578 37.8784 69.2522 37.8792 68.9161C37.8869 65.5744 37.8945 61.0751 37.9002 61.0783V38.9414C37.9002 38.9001 37.8907 38.8593 37.8724 38.8223C37.8541 38.7853 37.8275 38.753 37.7948 38.7278C37.762 38.7027 37.7239 38.6855 37.6833 38.6775C37.6428 38.6695 37.601 38.6709 37.5612 38.6817L37.4279 38.7167C33.6674 39.705 30.34 41.9106 27.9655 44.9894C25.591 48.0686 24.303 51.8472 24.3026 55.7352V60.8327C24.3034 61.1174 24.2205 61.3964 24.0645 61.6344C23.9084 61.8727 23.6859 62.0599 23.4246 62.1731C23.1632 62.2858 22.8745 62.32 22.594 62.2705C22.3136 62.2214 22.0537 62.0909 21.8467 61.8953C16.0709 56.344 12.3985 48.962 11.455 41.0068C10.5115 33.0517 12.3553 25.0154 16.6724 18.2672C20.9894 11.5189 27.5126 6.47622 35.1306 3.99807C42.7485 1.51991 50.99 1.75963 58.4512 4.67641C52.5767 1.88375 46.062 0.713841 39.5827 1.28805C33.1036 1.86226 26.8961 4.15966 21.6042 7.9419C16.3123 11.7242 12.1289 16.8535 9.48788 22.7978C6.84689 28.7421 5.84449 35.2847 6.58474 41.7472C7.32499 48.2092 9.7809 54.3559 13.6977 59.5488C17.6145 64.7421 22.8495 68.7925 28.8596 71.2802C34.8696 73.7676 41.4359 74.6018 47.877 73.6963C54.3184 72.7904 60.3995 70.1775 65.4906 66.1288C67.2665 64.9032 68.9233 63.513 70.4379 61.9762L70.5969 61.8059C70.8478 61.5369 70.9871 61.1826 70.9863 60.8146V13.4132C70.9863 13.4132 70.9863 13.2441 70.9863 13.0198C70.9867 12.9599 70.9669 12.9015 70.9307 12.8539C70.8941 12.8063 70.8429 12.7721 70.785 12.7569C70.727 12.7416 70.6654 12.7461 70.6102 12.7695C70.5551 12.793 70.5096 12.8342 70.4802 12.8865C69.0795 15.436 67.4726 17.8667 65.6758 20.1542Z" fill="url(#paint2_linear_3_21)"/>
<defs>
<linearGradient id="paint0_linear_3_21" x1="24.301" y1="48.3927" x2="96.0173" y2="48.3927" gradientUnits="userSpaceOnUse">
<stop stop-color="#02152B"/>
<stop offset="1" stop-color="#87E7AD"/>
</linearGradient>
<linearGradient id="paint1_linear_3_21" x1="-5.04368e-08" y1="40.6923" x2="82.5779" y2="40.6923" gradientUnits="userSpaceOnUse">
<stop stop-color="#87E7AD"/>
<stop offset="1" stop-color="#070612"/>
</linearGradient>
<linearGradient id="paint2_linear_3_21" x1="6.34792" y1="37.5985" x2="70.9863" y2="37.5985" gradientUnits="userSpaceOnUse">
<stop stop-color="#070612"/>
<stop offset="1" stop-color="#87E7AD"/>
</linearGradient>
</defs>
</svg>
