<svg width="50" height="50" viewBox="0 0 50 50" fill="none" xmlns="http://www.w3.org/2000/svg">
<path fill-rule="evenodd" clip-rule="evenodd" d="M26.5625 5.72925C26.5625 5.31485 26.3979 4.91742 26.1048 4.62439C25.8118 4.33137 25.4144 4.16675 25 4.16675C24.5856 4.16675 24.1882 4.33137 23.8951 4.62439C23.6021 4.91742 23.4375 5.31485 23.4375 5.72925V9.37508H19.325C18.5931 9.37476 17.8781 9.59471 17.2729 10.0063L13.7417 12.4105C13.655 12.4692 13.5526 12.5004 13.4479 12.5001H4.90208C4.48768 12.5001 4.09026 12.6647 3.79723 12.9577C3.5042 13.2508 3.33958 13.6482 3.33958 14.0626C3.33958 14.477 3.5042 14.8744 3.79723 15.1674C4.09026 15.4605 4.48768 15.6251 4.90208 15.6251H8.1875L1.17292 31.6251C1.04042 31.9373 1.01141 32.2838 1.09014 32.6137C1.16887 32.9436 1.35121 33.2397 1.61042 33.4584C1.77708 33.5917 1.94583 33.7188 2.25417 33.9188C2.64167 34.1709 3.19583 34.498 3.90417 34.8209C5.32083 35.4688 7.36667 36.1126 9.89583 36.1126C11.9626 36.1165 14.006 35.676 15.8875 34.8209C16.5958 34.498 17.15 34.1709 17.5375 33.9188C17.85 33.7168 18.0167 33.5897 18.1833 33.4543C18.4446 33.2379 18.6284 32.9425 18.707 32.6125C18.7855 32.2825 18.7546 31.9359 18.6187 31.6251L11.6021 15.6251H13.4479C14.1792 15.6251 14.8937 15.4042 15.4979 14.9938L19.0312 12.5897C19.1173 12.5314 19.2189 12.5002 19.3229 12.5001H23.4375V42.7084H14.0896C13.6752 42.7084 13.2778 42.873 12.9847 43.1661C12.6917 43.4591 12.5271 43.8565 12.5271 44.2709C12.5271 44.6853 12.6917 45.0827 12.9847 45.3758C13.2778 45.6688 13.6752 45.8334 14.0896 45.8334H35.9104C36.3248 45.8334 36.7222 45.6688 37.0153 45.3758C37.3083 45.0827 37.4729 44.6853 37.4729 44.2709C37.4729 43.8565 37.3083 43.4591 37.0153 43.1661C36.7222 42.873 36.3248 42.7084 35.9104 42.7084H26.5625V12.5001H30.675C30.7792 12.5001 30.8833 12.5313 30.9667 12.5897L34.5021 14.9938C35.1062 15.4042 35.8208 15.6251 36.5521 15.6251H38.3979L31.3812 31.6251C31.2409 31.945 31.2119 32.3027 31.2988 32.6411C31.3856 32.9795 31.5834 33.279 31.8604 33.4918C31.8854 33.5105 31.8604 33.4918 31.8646 33.4918C32.0712 33.6474 32.2869 33.7907 32.5104 33.9209C32.8958 34.1542 33.4479 34.4542 34.1562 34.7542C36.04 35.5417 38.0624 35.944 40.1042 35.9376C42.1467 35.9436 44.1699 35.5406 46.0542 34.7522C46.7583 34.4543 47.3125 34.1542 47.7 33.9209C47.9227 33.7894 48.1383 33.6462 48.3458 33.4918C48.6229 33.279 48.8206 32.9795 48.9075 32.6411C48.9943 32.3027 48.9653 31.945 48.825 31.6251L41.8125 15.6251H45.1C45.5144 15.6251 45.9118 15.4605 46.2048 15.1674C46.4979 14.8744 46.6625 14.477 46.6625 14.0626C46.6625 13.6482 46.4979 13.2508 46.2048 12.9577C45.9118 12.6647 45.5144 12.5001 45.1 12.5001H36.5542C36.4502 12.5 36.3486 12.4688 36.2625 12.4105L32.7271 10.0063C32.1225 9.59511 31.4082 9.37517 30.6771 9.37508H26.5625V5.72925ZM4.56875 31.6626C6.20854 32.5352 8.03834 32.9896 9.89583 32.9855C11.7533 32.9896 13.5831 32.5352 15.2229 31.6626L9.89583 19.5167L4.56875 31.6626ZM34.7979 31.6126C34.9687 31.6959 35.1604 31.7855 35.3708 31.8751C36.475 32.3397 38.0896 32.8126 40.1042 32.8126C41.9408 32.8178 43.7548 32.4076 45.4104 31.6126L40.1042 19.5147L34.7979 31.6126Z" fill="#87E7AD"/>
</svg>
