<svg width="50" height="50" viewBox="0 0 50 50" fill="none" xmlns="http://www.w3.org/2000/svg">
<path fill-rule="evenodd" clip-rule="evenodd" d="M21.875 11.4585V11.6356C21.4035 11.4689 20.8989 11.4178 20.4036 11.4865C19.9083 11.5553 19.4367 11.742 19.0285 12.0308C18.6202 12.3196 18.2873 12.7022 18.0576 13.1464C17.8278 13.5906 17.7081 14.0834 17.7084 14.5835V15.8022C17.2369 15.6356 16.7323 15.5844 16.237 15.6532C15.7416 15.722 15.27 15.9086 14.8618 16.1974C14.4536 16.4863 14.1206 16.8689 13.8909 17.313C13.6612 17.7572 13.5414 18.2501 13.5417 18.7502V30.7554C13.5417 36.7814 18.4271 41.6668 24.4531 41.6668C28.2417 41.6668 31.7594 39.7012 33.7448 36.4741L39.7198 26.7658C40.1363 26.0854 40.2773 25.2717 40.1142 24.4908C39.951 23.7099 39.496 23.0207 38.842 22.564C38.1879 22.1072 37.3842 21.9173 36.5949 22.033C35.8056 22.1487 35.0902 22.5613 34.5948 23.1866L32.2917 26.1075V14.5835C32.2919 14.0834 32.1722 13.5906 31.9425 13.1464C31.7128 12.7022 31.3798 12.3196 30.9716 12.0308C30.5633 11.742 30.0917 11.5553 29.5964 11.4865C29.1011 11.4178 28.5965 11.4689 28.125 11.6356V11.4585C28.125 10.6297 27.7958 9.83484 27.2097 9.24879C26.6237 8.66274 25.8288 8.3335 25 8.3335C24.1712 8.3335 23.3764 8.66274 22.7903 9.24879C22.2043 9.83484 21.875 10.6297 21.875 11.4585ZM26.0417 11.4585C26.0417 11.1822 25.9319 10.9173 25.7366 10.7219C25.5412 10.5266 25.2763 10.4168 25 10.4168C24.7238 10.4168 24.4588 10.5266 24.2634 10.7219C24.0681 10.9173 23.9584 11.1822 23.9584 11.4585V23.9585H21.875V14.5835C21.875 14.3072 21.7653 14.0423 21.5699 13.8469C21.3746 13.6516 21.1096 13.5418 20.8334 13.5418C20.5571 13.5418 20.2921 13.6516 20.0968 13.8469C19.9014 14.0423 19.7917 14.3072 19.7917 14.5835V26.0418H17.7084V18.7502C17.7084 18.4739 17.5986 18.2089 17.4033 18.0136C17.2079 17.8182 16.943 17.7085 16.6667 17.7085C16.3904 17.7085 16.1255 17.8182 15.9301 18.0136C15.7348 18.2089 15.625 18.4739 15.625 18.7502V30.7554C15.6253 32.6773 16.2527 34.5467 17.412 36.0796C18.5714 37.6125 20.1993 38.7252 22.0486 39.2486C23.8979 39.7721 25.8675 39.6778 27.6583 38.98C29.4491 38.2822 30.9633 37.0191 31.9708 35.3825L37.9459 25.6741C38.0864 25.4463 38.1344 25.1734 38.0801 24.9114C38.0258 24.6493 37.8734 24.4179 37.6539 24.2647C37.4345 24.1115 37.1647 24.048 36.9 24.0874C36.6353 24.1267 36.3956 24.2658 36.2302 24.4762L33.9281 27.397C32.7042 28.9491 30.2084 28.0845 30.2084 26.1075V14.5835C30.2084 14.3072 30.0986 14.0423 29.9033 13.8469C29.7079 13.6516 29.443 13.5418 29.1667 13.5418C28.8904 13.5418 28.6255 13.6516 28.4301 13.8469C28.2348 14.0423 28.125 14.3072 28.125 14.5835V23.9585H26.0417V11.4585Z" fill="#87E7AD"/>
<path fill-rule="evenodd" clip-rule="evenodd" d="M25 4.16675C36.5062 4.16675 45.8333 13.4938 45.8333 25.0001C45.8333 36.5063 36.5062 45.8334 25 45.8334C13.4938 45.8334 4.16667 36.5063 4.16667 25.0001C4.16667 13.4938 13.4938 4.16675 25 4.16675ZM43.75 25.0001C43.75 14.6449 35.3552 6.25008 25 6.25008C14.6448 6.25008 6.25 14.6449 6.25 25.0001C6.25 35.3553 14.6448 43.7501 25 43.7501C35.3552 43.7501 43.75 35.3553 43.75 25.0001Z" fill="#87E7AD"/>
</svg>
