<svg width="80" height="80" viewBox="0 0 80 80" fill="none" xmlns="http://www.w3.org/2000/svg">
<path d="M67.5351 68.2241C75.0005 60.7301 79.1857 50.5793 79.1712 40.0016C79.1632 39.3488 78.8985 38.7252 78.434 38.2664C77.9694 37.8073 77.3429 37.5502 76.6901 37.5502C76.0368 37.5502 75.4104 37.8073 74.9458 38.2664C74.4813 38.7252 74.2166 39.3488 74.2086 40.0016C74.2191 49.2714 70.5496 58.1668 64.0064 64.7331C60.8301 67.9942 57.0327 70.5861 52.8381 72.356C48.6439 74.1256 44.1376 75.0374 39.5853 75.0374C35.0328 75.0374 30.5265 74.1256 26.3322 72.356C22.1379 70.5861 18.3405 67.9942 15.1641 64.7331C8.6297 58.1603 4.96198 49.2685 4.96198 40.0002C4.96198 30.7316 8.6297 21.8399 15.1641 15.2669C18.322 12.0309 22.0909 9.45398 26.2522 7.68552C30.4136 5.91709 34.8846 4.99228 39.406 4.96476C40.3714 4.995 41.2868 5.40124 41.957 6.0968C42.6273 6.79232 42.9991 7.7222 42.9933 8.68806C42.9879 9.65393 42.6052 10.5794 41.927 11.2671C41.2487 11.9548 40.3286 12.3503 39.3629 12.3694C39.2735 12.3695 39.184 12.3745 39.0953 12.3842C32.2164 12.6057 25.6894 15.478 20.8791 20.4004C15.7991 25.5143 12.948 32.4299 12.948 39.6381C12.948 46.8464 15.7991 53.7618 20.8791 58.8758C23.3609 61.4181 26.326 63.4382 29.6001 64.8175C32.8741 66.1967 36.3912 66.9072 39.9437 66.9072C43.4963 66.9072 47.0134 66.1967 50.2875 64.8175C53.5613 63.4382 56.5265 61.4181 59.0083 58.8758C64.0962 53.7673 66.9485 46.8482 66.9383 39.6381C66.9488 38.5025 66.7341 37.3757 66.3068 36.3234C65.8792 35.2713 65.2477 34.3141 64.4482 33.5074C63.6487 32.7006 62.6974 32.0602 61.6491 31.6232C60.6009 31.1861 59.4765 30.9611 58.3406 30.9611C57.2047 30.9611 56.0804 31.1861 55.0321 31.6232C53.9838 32.0602 53.0326 32.7006 52.2331 33.5074C51.4335 34.3141 50.802 35.2713 50.3744 36.3234C49.9471 37.3757 49.7324 38.5025 49.7429 39.6381C49.7429 39.7105 49.7476 39.7786 49.7534 39.8481C49.7476 39.9176 49.7429 39.9871 49.7429 40.0581C49.7592 42.0381 49.1867 43.9782 48.0982 45.6327C47.0101 47.2867 45.4549 48.5802 43.6303 49.3493C41.8057 50.118 39.7935 50.3277 37.8497 49.9514C35.9056 49.5748 34.1173 48.6298 32.7114 47.2353C31.3056 45.8409 30.3456 44.0604 29.9533 42.1196C29.5611 40.1787 29.7542 38.1651 30.5081 36.3343C31.2621 34.5032 32.543 32.9375 34.1882 31.8357C35.8334 30.7339 37.769 30.1457 39.7489 30.1456C40.0773 30.1496 40.4032 30.0883 40.7078 29.9654C41.0123 29.8425 41.2893 29.6604 41.5229 29.4296C41.7564 29.1988 41.9422 28.9239 42.0685 28.6208C42.1953 28.3178 42.2605 27.9927 42.2605 27.6643C42.2605 27.3359 42.1953 27.0108 42.0685 26.7078C41.9422 26.4047 41.7564 26.1299 41.5229 25.8991C41.2893 25.6683 41.0123 25.4861 40.7078 25.3632C40.4032 25.2403 40.0773 25.179 39.7489 25.183C36.8105 25.1993 33.9425 26.0856 31.5071 27.73C29.0718 29.3745 27.178 31.7034 26.0647 34.423C24.9515 37.1425 24.6687 40.1309 25.252 43.0111C25.8353 45.8912 27.2585 48.5338 29.3422 50.6061C31.4259 52.6781 34.0766 54.0866 36.96 54.654C39.8431 55.2211 42.83 54.9216 45.5433 53.7933C48.2565 52.665 50.575 50.7586 52.2059 48.314C53.8368 45.8695 54.7069 42.9966 54.7069 40.0581C54.7069 39.9857 54.7022 39.9176 54.6964 39.8481C54.7022 39.7786 54.7069 39.7091 54.7069 39.6381C54.6972 39.1547 54.7841 38.6742 54.9626 38.2244C55.1407 37.7751 55.4072 37.3655 55.7454 37.0205C56.084 36.675 56.4881 36.4005 56.9339 36.2133C57.3796 36.0261 57.8587 35.9297 58.3421 35.9297C58.8255 35.9297 59.3045 36.0261 59.7503 36.2133C60.196 36.4005 60.6001 36.675 60.9387 37.0205C61.2769 37.3655 61.5434 37.7751 61.7216 38.2244C61.9001 38.6742 61.987 39.1547 61.9772 39.6381C61.9837 45.541 59.6471 51.205 55.4804 55.3862C53.4602 57.4618 51.0447 59.1111 48.3763 60.2376C45.708 61.3641 42.8409 61.9442 39.9445 61.9442C37.0484 61.9442 34.1814 61.3641 31.513 60.2376C28.8447 59.1111 26.4291 57.4618 24.4089 55.3862C20.2478 51.2014 17.9121 45.5396 17.9121 39.6381C17.9121 33.7366 20.2478 28.0749 24.4089 23.89C26.4307 21.8171 28.8464 20.1692 31.514 19.043C34.1816 17.9168 37.0473 17.3351 39.943 17.332C40.1657 17.3313 40.3873 17.3007 40.602 17.2407C42.7145 16.9167 44.6326 15.8242 45.989 14.1728C47.3454 12.5214 48.0443 10.4273 47.9516 8.29236C47.8589 6.15734 46.9808 4.13175 45.4864 2.60415C43.992 1.07654 41.9863 0.154476 39.8539 0.0148463C39.7649 0.00514379 39.6751 0.000187966 39.5853 0C39.5353 0 39.4857 0 39.4357 0C39.4111 0 39.3872 0 39.3633 0C39.3394 0 39.3148 0.00289481 39.2909 0.00361902C34.1324 0.0441872 29.0329 1.10546 24.2866 3.12624C19.5402 5.14701 15.2408 8.08734 11.6361 11.7777C4.18303 19.2796 0 29.4251 0 40.0002C0 50.575 4.18303 60.7203 11.6361 68.2223C15.2741 71.9501 19.621 74.9128 24.421 76.9352C29.221 78.9579 34.3772 80 39.586 80C44.7948 80 49.9507 78.9579 54.7511 76.9352C59.5511 74.9128 63.8978 71.9501 67.5358 68.2223L67.5351 68.2241Z" fill="url(#paint0_linear_21_5)"/>
<defs>
<linearGradient id="paint0_linear_21_5" x1="11.4798" y1="68.08" x2="61.7911" y2="18.8439" gradientUnits="userSpaceOnUse">
<stop stop-color="#41287B"/>
<stop offset="0.123" stop-color="#462779"/>
<stop offset="0.284" stop-color="#572775"/>
<stop offset="0.465" stop-color="#72266E"/>
<stop offset="0.663" stop-color="#982565"/>
<stop offset="0.87" stop-color="#C82459"/>
<stop offset="0.99" stop-color="#E72452"/>
</linearGradient>
</defs>
</svg>
