<svg width="30" height="30" viewBox="0 0 30 30" fill="none" xmlns="http://www.w3.org/2000/svg">
<path d="M13.1925 7.79979L8.96373 2.91854C8.47623 2.35604 7.58248 2.35854 7.01623 2.92604L3.53874 6.40979C2.50374 7.44604 2.20749 8.98479 2.80624 10.2185C6.38326 17.6248 12.3563 23.6062 19.7575 27.1935C20.99 27.7923 22.5275 27.496 23.5625 26.4598L27.0725 22.9435C27.6412 22.3748 27.6425 21.476 27.075 20.9885L22.175 16.7823C21.6625 16.3423 20.8662 16.3998 20.3525 16.9148L18.6475 18.6223C18.5602 18.7138 18.4453 18.7741 18.3204 18.794C18.1956 18.8138 18.0676 18.7922 17.9562 18.7323C15.1693 17.1274 12.8575 14.8126 11.2562 12.0235C11.1963 11.912 11.1746 11.7838 11.1944 11.6587C11.2143 11.5336 11.2747 11.4185 11.3662 11.331L13.0662 9.62979C13.5812 9.11229 13.6375 8.31229 13.1925 7.79854V7.79979Z" stroke="#61CA88" stroke-width="2" stroke-linecap="round" stroke-linejoin="round"/>
</svg>
