<svg width="84" height="80" viewBox="0 0 84 80" fill="none" xmlns="http://www.w3.org/2000/svg">
<path d="M80.0018 15.8254H3.90308V39.2063H80.0018V15.8254Z" fill="#EBEBEB"/>
<path d="M80.0018 39.2065H3.90308V76.6571H80.0018V39.2065Z" fill="#F6A729"/>
<path d="M77.9818 12.5736H64.4329V5.92263C64.4329 2.49022 62.6376 0 60.1641 0H25.0329C22.5594 0 20.7641 2.49203 20.7641 5.92263V12.5736H5.92263C4.35253 12.5758 2.84733 13.2005 1.73708 14.3107C0.626838 15.421 0.00215299 16.9262 0 18.4963V74.0774C0.00227228 75.6475 0.626987 77.1526 1.73721 78.263C2.84742 79.3729 4.35256 79.9977 5.92263 80H77.9818C79.552 79.9977 81.057 79.3729 82.1674 78.263C83.2774 77.1526 83.9022 75.6475 83.9044 74.0774V18.4981C83.9026 16.9277 83.2783 15.422 82.1679 14.3114C81.0575 13.2007 79.5524 12.5758 77.9818 12.5736ZM26.15 5.92263C26.1496 5.74251 26.1622 5.56253 26.1876 5.38417H59.0108C59.0361 5.56253 59.0488 5.74251 59.0483 5.92263V12.5736H26.15V5.92263ZM78.5202 74.0774C78.5202 74.2202 78.4633 74.3572 78.3625 74.458C78.2616 74.5589 78.1247 74.6158 77.9818 74.6158H5.92263C5.77986 74.6158 5.64296 74.5589 5.542 74.458C5.44104 74.3572 5.3843 74.2202 5.38417 74.0774V42.0291H30.6427V43.6445C30.6426 43.8143 30.676 43.9824 30.741 44.1392C30.8059 44.2961 30.901 44.4387 31.0211 44.5588C31.1411 44.6788 31.2837 44.7741 31.4405 44.8391C31.5973 44.9041 31.7655 44.9375 31.9353 44.9375H53.2617C53.4317 44.9376 53.5999 44.9042 53.7568 44.8392C53.9137 44.7742 54.0561 44.679 54.1764 44.5589C54.2962 44.4389 54.3916 44.2963 54.4567 44.1394C54.5213 43.9825 54.5548 43.8143 54.5548 43.6445V42.0291H78.5202V74.0774ZM78.5202 36.6426H5.38417V18.4981C5.3843 18.3553 5.44104 18.2185 5.542 18.1175C5.64296 18.0165 5.77986 17.9598 5.92263 17.9596H77.9818C78.1247 17.9598 78.2616 18.0165 78.3625 18.1175C78.4633 18.2185 78.5202 18.3553 78.5202 18.4981V36.6426Z" fill="#2A3255"/>
</svg>
