<svg width="87" height="50" viewBox="0 0 87 50" fill="none" xmlns="http://www.w3.org/2000/svg">
<path d="M7.24623 30.4348C8.25265 30.4348 8.95715 30.0725 9.35972 29.3478C9.76229 28.6232 9.76229 27.8986 9.35972 27.1739C8.95715 26.4493 8.25265 26.087 7.24623 26.087C6.23981 26.087 5.53532 26.4493 5.13275 27.1739C4.73018 27.8986 4.73018 28.6232 5.13275 29.3478C5.53532 30.0725 6.23981 30.4348 7.24623 30.4348ZM62.8384 28.4647C62.5868 28.1703 62.1025 27.6042 61.3854 26.7663C60.6683 25.9284 60.1463 25.317 59.8192 24.9321C59.4921 24.5471 59.014 23.9923 58.385 23.2677C57.756 22.543 57.2213 21.9429 56.781 21.4674C56.3407 20.9918 55.8312 20.4597 55.2525 19.8709C54.6738 19.2822 54.1077 18.7274 53.5542 18.2065L48.8366 22.962C46.7483 25.0906 44.1253 26.1322 40.9676 26.087C37.81 26.0417 35.2247 24.9321 33.2119 22.7582C31.7778 21.1957 31.067 19.4067 31.0795 17.3913C31.0921 15.3759 31.8281 13.5983 33.2874 12.0584L39.9675 5.06114C39.414 4.81205 38.7724 4.62523 38.0427 4.50068C37.3131 4.37613 36.7155 4.3082 36.25 4.29688C35.7846 4.28555 35.0738 4.29121 34.1177 4.31386C33.1616 4.3365 32.5451 4.34783 32.2684 4.34783C29.9536 4.34783 27.9659 5.09511 26.3053 6.58967L20.3423 11.9565H14.4925V30.4348C14.6183 30.4348 14.8825 30.4291 15.285 30.4178C15.6876 30.4065 15.9644 30.4065 16.1153 30.4178C16.2663 30.4291 16.5116 30.4518 16.8513 30.4857C17.1909 30.5197 17.4488 30.5707 17.625 30.6386C17.8011 30.7065 18.0212 30.8028 18.2854 30.9273C18.5496 31.0519 18.7823 31.2047 18.9836 31.3859L30.1926 41.3043C33.0861 43.8179 35.9418 45.0747 38.7598 45.0747C40.7223 45.0747 42.2949 44.5426 43.4774 43.4783C44.9115 43.9312 46.3268 43.8406 47.7232 43.2065C49.1196 42.5725 50.0317 41.6101 50.4594 40.3193C52.3213 40.4552 53.919 39.957 55.2525 38.8247C55.7557 38.4171 56.2086 37.9019 56.6112 37.2792C57.0138 36.6565 57.1899 36.0847 57.1396 35.5639C57.3912 35.7903 57.9321 35.9035 58.7624 35.9035C59.8443 35.9035 60.813 35.6658 61.6685 35.1902C62.5239 34.7147 63.1466 34.1146 63.5366 33.3899C63.9266 32.6653 64.0776 31.8558 63.9895 30.9613C63.9015 30.0668 63.5178 29.2346 62.8384 28.4647ZM68.8392 30.4348H72.4623V13.0435H68.9524L63.0271 6.92935C61.3665 5.20833 59.2405 4.34783 56.6489 4.34783H50.3462C48.1069 4.34783 46.2702 5.10643 44.8361 6.62364L36.9482 14.8777C36.2437 15.625 35.8915 16.4742 35.8915 17.4253C35.8915 18.3764 36.2312 19.2255 36.9105 19.9728C37.9924 21.1277 39.3762 21.7165 41.062 21.7391C42.7477 21.7618 44.1442 21.207 45.2512 20.0747L52.5352 12.6698C53.1642 12.149 53.8372 11.9056 54.5543 11.9395C55.2714 11.9735 55.8627 12.2792 56.3281 12.8567C56.7936 13.4341 56.9005 14.0738 56.6489 14.7758C57.0515 15.2061 57.756 15.9194 58.7624 16.9158C59.7688 17.9121 60.5237 18.6821 61.0269 19.2255C61.7565 20.0408 62.7944 21.2353 64.1405 22.8091C65.4866 24.3829 66.298 25.3397 66.5748 25.6793C67.8831 27.1739 68.6379 28.7591 68.8392 30.4348ZM79.7086 30.4348C80.715 30.4348 81.4195 30.0725 81.822 29.3478C82.2246 28.6232 82.2246 27.8986 81.822 27.1739C81.4195 26.4493 80.715 26.087 79.7086 26.087C78.7021 26.087 77.9977 26.4493 77.5951 27.1739C77.1925 27.8986 77.1925 28.6232 77.5951 29.3478C77.9977 30.0725 78.7021 30.4348 79.7086 30.4348ZM86.9548 10.8696V32.6087C86.9548 33.1975 86.7158 33.707 86.2377 34.1372C85.7597 34.5675 85.1936 34.7826 84.5394 34.7826H68.1599C67.4805 36.2545 66.449 37.4604 65.0651 38.4001C63.6813 39.3399 62.1088 39.923 60.3475 40.1495C59.5172 41.2364 58.5045 42.1592 57.3094 42.9178C56.1143 43.6764 54.8248 44.1916 53.441 44.4633C52.3842 45.6635 51.0696 46.5863 49.4971 47.2317C47.9245 47.877 46.308 48.1544 44.6474 48.0639C43.1377 48.8338 41.5526 49.281 39.892 49.4056C38.2314 49.5301 36.6274 49.3716 35.0801 48.93C33.5327 48.4884 32.0608 47.8827 30.6644 47.1128C29.268 46.3428 27.9659 45.4257 26.7582 44.3614L15.9266 34.7826H2.41541C1.76124 34.7826 1.19513 34.5675 0.717075 34.1372C0.239025 33.707 0 33.1975 0 32.6087V9.78261C0 9.19384 0.239025 8.68433 0.717075 8.25408C1.19513 7.82382 1.76124 7.6087 2.41541 7.6087H18.3043C18.6565 7.29167 19.2478 6.74819 20.0781 5.97826C20.9084 5.20833 21.506 4.66486 21.8708 4.34783C22.2356 4.0308 22.7892 3.5779 23.5314 2.98913C24.2736 2.40036 24.9089 1.97577 25.4373 1.71535C25.9657 1.45494 26.6073 1.16621 27.3621 0.849185C28.1169 0.532156 28.8969 0.311368 29.702 0.186821C30.5071 0.0622735 31.3626 0 32.2684 0H36.6841C39.1749 0 41.452 0.634058 43.5151 1.90217C45.5783 0.634058 47.8553 0 50.3462 0H56.6489C57.5296 0 58.3724 0.0679348 59.1776 0.203804C59.9827 0.339674 60.6935 0.50385 61.3099 0.696332C61.9264 0.888813 62.5742 1.18886 63.2536 1.59647C63.9329 2.00408 64.4927 2.35507 64.933 2.64946C65.3734 2.94384 65.9143 3.39108 66.5559 3.99117C67.1975 4.59126 67.6881 5.0668 68.0278 5.4178C68.3675 5.7688 68.8832 6.31227 69.5752 7.04823C70.2671 7.78419 70.7892 8.33333 71.1414 8.69565H84.5394C85.1936 8.69565 85.7597 8.91078 86.2377 9.34103C86.7158 9.77129 86.9548 10.2808 86.9548 10.8696Z" fill="#87E7AD"/>
</svg>
