<svg width="31" height="21" viewBox="0 0 31 21" fill="none" xmlns="http://www.w3.org/2000/svg">
<path d="M30.0833 19.2573C30.0833 20.0594 29.4329 20.7083 28.6322 20.7083H16.951C16.5662 20.7083 16.1971 20.5554 15.925 20.2833C15.6528 20.0112 15.5 19.6421 15.5 19.2573C15.5 18.8724 15.6528 18.5034 15.925 18.2312C16.1971 17.9591 16.5662 17.8062 16.951 17.8062H28.6322C29.4343 17.8062 30.0833 18.4552 30.0833 19.2573ZM30.0833 10.5C30.0833 11.3021 29.4329 11.951 28.6322 11.951H2.36767C1.98283 11.951 1.61375 11.7982 1.34163 11.526C1.0695 11.2539 0.916626 10.8848 0.916626 10.5C0.916626 10.1152 1.0695 9.74607 1.34163 9.47395C1.61375 9.20183 1.98283 9.04895 2.36767 9.04895H28.6322C29.4343 9.04895 30.0833 9.69937 30.0833 10.5ZM28.6322 3.19374C29.0171 3.19374 29.3862 3.04086 29.6583 2.76874C29.9304 2.49662 30.0833 2.12754 30.0833 1.7427C30.0833 1.35786 29.9304 0.98878 29.6583 0.716657C29.3862 0.444533 29.0171 0.291657 28.6322 0.291656H11.1177C10.9271 0.291656 10.7384 0.329189 10.5624 0.40211C10.3863 0.475032 10.2264 0.581915 10.0916 0.716657C9.95688 0.851398 9.85 1.01136 9.77708 1.18741C9.70416 1.36346 9.66663 1.55214 9.66663 1.7427C9.66663 1.93325 9.70416 2.12194 9.77708 2.29799C9.85 2.47404 9.95688 2.634 10.0916 2.76874C10.2264 2.90348 10.3863 3.01036 10.5624 3.08329C10.7384 3.15621 10.9271 3.19374 11.1177 3.19374H28.6322Z" fill="#E9E9EC"/>
</svg>
